<svg width="62" height="32" viewBox="0 0 62 32" fill="none" xmlns="http://www.w3.org/2000/svg">
<g clip-path="url(#clip0_3814_72121)">
<path d="M37.3107 27.5012C37.5864 27.5012 37.8365 27.5687 38.0611 27.7032C38.2877 27.8379 38.4679 28.0189 38.602 28.2465C38.7361 28.4722 38.8031 28.7234 38.8031 29.0003C38.8031 29.207 38.7644 29.4013 38.687 29.5835C38.6095 29.7636 38.5019 29.9229 38.3641 30.0612C38.2282 30.1979 38.0697 30.305 37.8885 30.3827C37.7091 30.4604 37.5165 30.4993 37.3107 30.4993C37.0767 30.4993 36.8746 30.4434 36.7048 30.3316C36.5349 30.2196 36.4008 30.0736 36.3027 29.8936V30.4253H35.9062V26.1587H36.3027V28.1071C36.4008 27.927 36.5349 27.7811 36.7048 27.6691C36.8746 27.5572 37.0767 27.5012 37.3107 27.5012ZM37.3079 30.1097C37.51 30.1097 37.693 30.0604 37.8573 29.9618C38.0215 29.8612 38.1528 29.7265 38.2509 29.5579C38.3491 29.3891 38.3982 29.2033 38.3982 29.0003C38.3982 28.7917 38.3481 28.6039 38.248 28.4371C38.1481 28.2684 38.015 28.1347 37.8488 28.0361C37.6845 27.9375 37.5043 27.8882 37.3079 27.8882C37.1079 27.8882 36.9341 27.9384 36.7869 28.0389C36.6415 28.1394 36.5292 28.274 36.4499 28.4428C36.3726 28.6116 36.3339 28.7974 36.3339 29.0003C36.3339 29.207 36.3735 29.3948 36.4528 29.5636C36.532 29.7304 36.6443 29.8632 36.7898 29.9618C36.937 30.0604 37.1096 30.1097 37.3079 30.1097Z" fill="#0B2564"/>
<path d="M41.0813 27.5808H41.5004L39.9515 31.8476H39.5296L40.045 30.4252L39.0283 27.5808H39.4616L40.2431 29.8763L41.0813 27.5808Z" fill="#0B2564"/>
<path d="M44.8124 30.4993C44.601 30.4993 44.3962 30.4662 44.1981 30.3999C44.0017 30.3334 43.8299 30.2386 43.6827 30.1153C43.5354 29.9922 43.4316 29.8451 43.3711 29.6745L43.7422 29.5351C43.7836 29.6526 43.8592 29.7542 43.9686 29.8395C44.0801 29.923 44.2093 29.9873 44.3565 30.0329C44.5057 30.0784 44.6577 30.1011 44.8124 30.1011C44.9937 30.1011 45.1627 30.0709 45.3194 30.0102C45.4761 29.9494 45.6025 29.865 45.6987 29.7569C45.7951 29.6471 45.8432 29.5181 45.8432 29.3702C45.8432 29.2203 45.7932 29.097 45.6932 29.0004C45.5931 28.9037 45.4637 28.8278 45.3052 28.7728C45.1486 28.716 44.9842 28.6724 44.8124 28.642C44.5425 28.5945 44.3 28.53 44.0848 28.4485C43.8714 28.3671 43.7025 28.2523 43.5778 28.1044C43.4533 27.9545 43.3909 27.7573 43.3909 27.5127C43.3909 27.2833 43.4571 27.0841 43.5892 26.9153C43.7214 26.7466 43.8949 26.6157 44.1103 26.5228C44.3273 26.4299 44.5613 26.3835 44.8124 26.3835C45.0182 26.3835 45.2193 26.4157 45.4156 26.4802C45.6119 26.5447 45.7847 26.6386 45.9338 26.7618C46.0849 26.8851 46.1933 27.0358 46.2595 27.2141L45.8829 27.3506C45.8413 27.2311 45.7649 27.1297 45.6535 27.0462C45.544 26.9609 45.4156 26.8964 45.2683 26.8528C45.1211 26.8072 44.9691 26.7845 44.8124 26.7845C44.6332 26.7826 44.4651 26.8129 44.3084 26.8756C44.1537 26.9362 44.0281 27.0216 43.9318 27.1316C43.8356 27.2397 43.7873 27.3667 43.7873 27.5127C43.7873 27.6833 43.8317 27.8152 43.9205 27.9081C44.0111 27.9991 44.1339 28.0673 44.2886 28.1129C44.4435 28.1584 44.618 28.1992 44.8124 28.2351C45.0655 28.2789 45.3005 28.3471 45.5175 28.44C45.7346 28.531 45.9092 28.6533 46.0413 28.8069C46.1736 28.9586 46.2396 29.1463 46.2396 29.3702C46.2396 29.5977 46.1736 29.7968 46.0413 29.9675C45.9092 30.1362 45.7346 30.2671 45.5175 30.36C45.3023 30.4529 45.0673 30.4993 44.8124 30.4993Z" fill="#0B2564"/>
<path d="M48.3036 27.979H47.6268L47.6239 30.4252H47.2275L47.2304 27.979H46.7178V27.5808H47.2304L47.2275 26.6877H47.6239L47.6268 27.5808H48.3036V27.979Z" fill="#0B2564"/>
<path d="M49.9773 30.4993C49.7168 30.4993 49.479 30.432 49.2638 30.2973C49.0504 30.1628 48.8796 29.9825 48.7512 29.7569C48.6247 29.5293 48.5615 29.2782 48.5615 29.0031C48.5615 28.7946 48.5984 28.6002 48.672 28.4201C48.7457 28.238 48.8466 28.0787 48.975 27.9422C49.1052 27.8037 49.2562 27.6957 49.428 27.618C49.5998 27.5402 49.783 27.5012 49.9773 27.5012C50.1869 27.5012 50.3795 27.543 50.555 27.6264C50.7325 27.7099 50.8844 27.8264 51.0109 27.9763C51.1393 28.1262 51.2355 28.3015 51.2997 28.5025C51.3659 28.7035 51.3932 28.9206 51.382 29.154H48.9807C49.0033 29.334 49.0598 29.4952 49.1505 29.6375C49.243 29.7797 49.36 29.8926 49.5016 29.976C49.6451 30.0575 49.8038 30.0993 49.9773 30.1011C50.1662 30.1011 50.3361 30.0517 50.487 29.9531C50.64 29.8545 50.7627 29.719 50.8552 29.5464L51.2573 29.6403C51.144 29.8926 50.9732 30.0993 50.7448 30.2604C50.5163 30.4198 50.2605 30.4993 49.9773 30.4993ZM48.9693 28.8325H50.9826C50.9694 28.6562 50.9156 28.495 50.8212 28.3489C50.7287 28.201 50.6088 28.0834 50.4615 27.9962C50.3143 27.9071 50.1529 27.8625 49.9773 27.8625C49.8018 27.8625 49.6414 27.9061 49.4959 27.9933C49.3506 28.0787 49.2316 28.1953 49.1392 28.3432C49.0467 28.4893 48.9901 28.6524 48.9693 28.8325Z" fill="#0B2564"/>
<path d="M51.8672 30.4253V27.5809H52.2636V27.9735C52.3637 27.8294 52.4939 27.7146 52.6545 27.6292C52.8149 27.544 52.9895 27.5012 53.1783 27.5012C53.2877 27.5012 53.3935 27.5156 53.4954 27.544L53.334 27.9393C53.2547 27.9146 53.1774 27.9024 53.1018 27.9024C52.9488 27.9024 52.8083 27.9402 52.6799 28.0162C52.5534 28.0919 52.4525 28.1935 52.3769 28.3205C52.3015 28.4475 52.2636 28.5889 52.2636 28.7443V30.4253H51.8672Z" fill="#0B2564"/>
<path d="M53.8252 30.4253V26.1587H54.2216V30.4253H53.8252Z" fill="#0B2564"/>
<path d="M54.9043 27.5809H55.3007V30.4253H54.9043V27.5809ZM55.1053 27.0831C55.0411 27.0831 54.9865 27.0624 54.9412 27.0206C54.8978 26.977 54.876 26.9229 54.876 26.8584C54.876 26.794 54.8978 26.7409 54.9412 26.6991C54.9865 26.6555 55.0411 26.6338 55.1053 26.6338C55.1677 26.6338 55.2205 26.6555 55.2639 26.6991C55.3093 26.7409 55.3319 26.794 55.3319 26.8584C55.3319 26.9229 55.3103 26.977 55.2667 27.0206C55.2233 27.0624 55.1695 27.0831 55.1053 27.0831Z" fill="#0B2564"/>
<path d="M58.4409 28.6646V30.4253H58.0445V28.7443C58.0445 28.5889 58.0066 28.4475 57.9312 28.3205C57.8556 28.1935 57.7547 28.0919 57.6282 28.0162C57.5018 27.9402 57.361 27.9024 57.2063 27.9024C57.0533 27.9024 56.9127 27.9402 56.7843 28.0162C56.6579 28.0919 56.5568 28.1935 56.4814 28.3205C56.4058 28.4475 56.3681 28.5889 56.3681 28.7443V30.4253H55.9717V27.5809H56.3681V27.9735C56.4681 27.8294 56.5984 27.7146 56.7588 27.6292C56.9192 27.544 57.094 27.5012 57.2827 27.5012C57.4961 27.5012 57.6905 27.5535 57.866 27.6578C58.0415 27.762 58.1813 27.9024 58.2852 28.0787C58.3889 28.255 58.4409 28.4504 58.4409 28.6646Z" fill="#0B2564"/>
<path d="M61.2033 27.5809H61.5997V30.5306C61.5997 30.7126 61.5602 30.8833 61.4809 31.0426C61.4036 31.2019 61.2978 31.3412 61.1637 31.4607C61.0315 31.5822 60.8805 31.6769 60.7107 31.7451C60.5408 31.8135 60.3643 31.8477 60.1811 31.8477C59.9848 31.8477 59.7951 31.8021 59.612 31.711C59.4288 31.6219 59.2693 31.5025 59.1335 31.3526C58.9994 31.2029 58.9041 31.0369 58.8474 30.8548L59.2128 30.687C59.2485 30.8292 59.3157 30.9572 59.4138 31.071C59.5138 31.1868 59.6308 31.2777 59.7649 31.3442C59.9008 31.4124 60.0396 31.4465 60.1811 31.4465C60.3113 31.4465 60.437 31.4219 60.5577 31.3726C60.6805 31.3252 60.79 31.2597 60.8862 31.1763C60.9844 31.0929 61.0618 30.9953 61.1185 30.8833C61.175 30.7734 61.2033 30.6558 61.2033 30.5306V29.902C61.1051 30.0803 60.9722 30.2243 60.8041 30.3344C60.638 30.4444 60.4445 30.4993 60.2236 30.4993C60.0254 30.4993 59.8385 30.4604 59.663 30.3827C59.4892 30.305 59.3363 30.1979 59.2042 30.0612C59.072 29.9229 58.9682 29.7636 58.8927 29.5835C58.8191 29.4033 58.7822 29.2098 58.7822 29.0031C58.7822 28.7964 58.8191 28.6031 58.8927 28.4228C58.9682 28.2408 59.072 28.0816 59.2042 27.945C59.3363 27.8065 59.4892 27.6984 59.663 27.6207C59.8385 27.543 60.0254 27.5042 60.2236 27.5042C60.4445 27.5042 60.638 27.5592 60.8041 27.669C60.9722 27.7771 61.1051 27.9213 61.2033 28.1015V27.5809ZM60.2265 30.1125C60.4228 30.1125 60.5917 30.0612 60.7333 29.9588C60.8768 29.8565 60.9871 29.721 61.0647 29.5522C61.142 29.3833 61.1807 29.2003 61.1807 29.0031C61.1807 28.8003 61.1411 28.6153 61.0618 28.4485C60.9844 28.2797 60.874 28.1451 60.7305 28.0446C60.587 27.9422 60.4189 27.8909 60.2265 27.8909C60.0339 27.8909 59.8584 27.9412 59.6997 28.0418C59.543 28.1404 59.4185 28.2739 59.3259 28.4428C59.2334 28.6116 59.1873 28.7984 59.1873 29.0031C59.1873 29.208 59.2344 29.3948 59.3288 29.5636C59.4233 29.7304 59.5487 29.8642 59.7054 29.9646C59.864 30.0632 60.0376 30.1125 60.2265 30.1125Z" fill="#0B2564"/>
<path d="M5.23091 24.5862C4.47884 24.5862 3.75618 24.468 3.06296 24.2316C2.36974 23.995 1.76479 23.6567 1.24815 23.2166C0.731504 22.7699 0.362004 22.2411 0.139648 21.6301L2.05256 20.9108C2.16373 21.226 2.37628 21.5085 2.69019 21.7581C3.01064 22.0012 3.38995 22.1917 3.82812 22.3297C4.27282 22.4677 4.74043 22.5366 5.23091 22.5366C5.7541 22.5366 6.24459 22.4512 6.70238 22.2804C7.16671 22.1096 7.53948 21.8732 7.82069 21.571C8.10844 21.2688 8.25231 20.914 8.25231 20.5067C8.25231 20.0863 8.10191 19.7415 7.80107 19.4721C7.50678 19.2027 7.12747 18.9891 6.66315 18.8316C6.20536 18.6739 5.72795 18.5557 5.23091 18.4768C4.26956 18.3191 3.4063 18.0892 2.64114 17.787C1.88252 17.4848 1.28085 17.0611 0.836142 16.5158C0.397972 15.9706 0.178887 15.2611 0.178887 14.3874C0.178887 13.5662 0.411051 12.8502 0.87538 12.2392C1.34625 11.6283 1.96427 11.1553 2.72943 10.8203C3.50113 10.4787 4.33496 10.3079 5.23091 10.3079C5.96991 10.3079 6.68277 10.4261 7.36944 10.6626C8.06267 10.8925 8.67087 11.2308 9.19406 11.6776C9.72379 12.1177 10.1031 12.6531 10.332 13.2838L8.39947 13.9834C8.2883 13.6615 8.07574 13.3823 7.76184 13.1458C7.44792 12.9028 7.0686 12.7122 6.6239 12.5743C6.18574 12.4363 5.7214 12.3673 5.23091 12.3673C4.70773 12.3608 4.21724 12.4462 3.75945 12.6236C3.30821 12.7943 2.93871 13.0308 2.65094 13.333C2.36319 13.6352 2.21932 13.9867 2.21932 14.3874C2.21932 14.8801 2.35339 15.2546 2.62152 15.5108C2.88965 15.767 3.24934 15.9575 3.70059 16.0823C4.15839 16.2005 4.66849 16.3089 5.23091 16.4074C6.13342 16.5521 6.96725 16.7917 7.7324 17.1268C8.50411 17.4618 9.12213 17.9085 9.58645 18.467C10.0573 19.0188 10.2928 19.6987 10.2928 20.5067C10.2928 21.3214 10.0573 22.0373 9.58645 22.6549C9.12213 23.2659 8.50411 23.7421 7.7324 24.0837C6.96725 24.4187 6.13342 24.5862 5.23091 24.5862Z" fill="#0B2564"/>
<path d="M14.351 29.2571H12.3105V14.4762H14.351V15.9247C14.678 15.4189 15.0965 15.0083 15.6066 14.693C16.1167 14.3776 16.7183 14.22 17.4115 14.22C18.1244 14.22 18.7915 14.3546 19.4128 14.624C20.0407 14.8933 20.59 15.2678 21.0609 15.7473C21.5318 16.2203 21.9012 16.7688 22.1694 17.393C22.4376 18.017 22.5715 18.6872 22.5715 19.4031C22.5715 20.1192 22.4376 20.7926 22.1694 21.4232C21.9012 22.0539 21.5318 22.609 21.0609 23.0885C20.59 23.5615 20.0407 23.9327 19.4128 24.2021C18.7915 24.4713 18.1244 24.606 17.4115 24.606C16.7183 24.606 16.1167 24.4483 15.6066 24.133C15.0965 23.8111 14.678 23.4006 14.351 22.9014V29.2571ZM17.392 16.2006C16.823 16.2006 16.3227 16.3451 15.8911 16.6341C15.4595 16.9233 15.1227 17.3108 14.8807 17.7969C14.6387 18.2766 14.5177 18.8119 14.5177 19.4031C14.5177 19.9944 14.6387 20.533 14.8807 21.0193C15.1227 21.5053 15.4595 21.8929 15.8911 22.182C16.3227 22.471 16.823 22.6155 17.392 22.6155C17.9544 22.6155 18.4711 22.4743 18.942 22.1918C19.4128 21.9028 19.7889 21.5153 20.0701 21.029C20.3513 20.543 20.4919 20.001 20.4919 19.4031C20.4919 18.8184 20.3513 18.2831 20.0701 17.7969C19.7954 17.3108 19.4226 16.9233 18.9517 16.6341C18.4809 16.3451 17.9609 16.2006 17.392 16.2006Z" fill="#0B2564"/>
<path d="M28.4684 24.5862C27.5659 24.5862 26.7418 24.3531 25.9963 23.8866C25.2574 23.4202 24.6655 22.7962 24.2208 22.0144C23.7826 21.226 23.5635 20.3557 23.5635 19.403C23.5635 18.6804 23.6911 18.0071 23.9461 17.3829C24.2011 16.7524 24.551 16.2005 24.9957 15.7276C25.4471 15.248 25.9703 14.8736 26.5653 14.6042C27.1605 14.3349 27.7949 14.2002 28.4684 14.2002C29.2204 14.2002 29.9104 14.3579 30.5383 14.6732C31.1661 14.9819 31.7023 15.4122 32.147 15.964C32.5917 16.5093 32.9187 17.14 33.1281 17.8561C33.3374 18.5655 33.3995 19.3209 33.3145 20.1224H25.7512C25.8362 20.5758 25.9997 20.9864 26.2415 21.3542C26.49 21.7155 26.8041 22.0012 27.1832 22.2115C27.5691 22.4216 27.9975 22.53 28.4684 22.5366C28.9654 22.5366 29.4166 22.4118 29.8221 22.1622C30.2342 21.9126 30.5709 21.5676 30.8326 21.1276L32.9025 21.6104C32.5101 22.4842 31.9182 23.2001 31.1268 23.7586C30.3356 24.3103 29.4494 24.5862 28.4684 24.5862ZM25.6824 18.5557H31.2544C31.189 18.0827 31.0223 17.6556 30.7541 17.2747C30.4924 16.8871 30.1622 16.5816 29.7633 16.3583C29.3709 16.1283 28.9393 16.0133 28.4684 16.0133C28.004 16.0133 27.5725 16.125 27.1735 16.3483C26.7811 16.5717 26.4541 16.8771 26.1926 17.2647C25.9374 17.6458 25.7674 18.0762 25.6824 18.5557Z" fill="#93278F"/>
<path d="M41.3253 21.5315L43.1501 22.5268C42.7052 23.1509 42.1396 23.6502 41.4529 24.0246C40.7727 24.3991 40.0338 24.5862 39.236 24.5862C38.3334 24.5862 37.5094 24.3531 36.7638 23.8866C36.0248 23.4202 35.433 22.7962 34.9883 22.0144C34.5502 21.226 34.3311 20.3557 34.3311 19.403C34.3311 18.6804 34.4586 18.0071 34.7137 17.3829C34.9687 16.7524 35.3186 16.2005 35.7633 15.7276C36.2145 15.248 36.7377 14.8736 37.3329 14.6042C37.9279 14.3349 38.5623 14.2002 39.236 14.2002C40.0338 14.2002 40.7727 14.3874 41.4529 14.7619C42.1396 15.1363 42.7052 15.6389 43.1501 16.2695L41.3253 17.2647C41.0507 16.9362 40.7303 16.6866 40.3641 16.5158C39.9978 16.3385 39.6218 16.2498 39.236 16.2498C38.6996 16.2498 38.2125 16.3976 37.7743 16.6933C37.3426 16.9823 36.9994 17.3666 36.7442 17.8461C36.4957 18.3191 36.3715 18.8381 36.3715 19.403C36.3715 19.9616 36.4989 20.4804 36.7541 20.9601C37.0091 21.4331 37.3524 21.814 37.7841 22.1031C38.2223 22.3921 38.7061 22.5366 39.236 22.5366C39.6413 22.5366 40.0272 22.4447 40.3935 22.2607C40.7597 22.0768 41.0703 21.8337 41.3253 21.5315Z" fill="#0B2564"/>
<path d="M50.1006 16.5259H48.0407L48.0308 24.3302H45.9903L46.0003 16.5259H44.4404V14.4762H46.0003L45.9903 11.3821H48.0308L48.0407 14.4762H50.1006V16.5259Z" fill="#0B2564"/>
<path d="M59.2587 14.4761H61.2991V24.33H59.2488L59.1704 22.9013C58.8826 23.4071 58.4935 23.8145 58.0029 24.1232C57.5126 24.4319 56.9338 24.5862 56.2666 24.5862C55.5472 24.5862 54.8705 24.4517 54.2361 24.1823C53.6017 23.9064 53.0426 23.5253 52.5586 23.0393C52.0812 22.5531 51.7084 21.9947 51.4402 21.364C51.1722 20.7268 51.0381 20.0435 51.0381 19.3144C51.0381 18.6115 51.1689 17.9513 51.4304 17.3338C51.6921 16.7096 52.0551 16.1644 52.5194 15.698C52.9836 15.2316 53.52 14.867 54.1282 14.6042C54.7429 14.3349 55.4001 14.2002 56.0999 14.2002C56.8127 14.2002 57.4406 14.3644 57.9834 14.6929C58.5328 15.0148 58.9873 15.4287 59.3469 15.9345L59.2587 14.4761ZM56.2177 22.6056C56.7931 22.6056 57.2967 22.4644 57.7283 22.182C58.16 21.8928 58.4935 21.5052 58.729 21.0192C58.9708 20.533 59.0919 19.9944 59.0919 19.403C59.0919 18.8053 58.9708 18.2633 58.729 17.7772C58.487 17.291 58.1502 16.9067 57.7185 16.6242C57.2935 16.3353 56.7931 16.1907 56.2177 16.1907C55.6487 16.1907 55.1287 16.3353 54.6579 16.6242C54.187 16.9134 53.8143 17.301 53.5396 17.787C53.2649 18.2732 53.1276 18.8118 53.1276 19.403C53.1276 20.0009 53.2682 20.5429 53.5494 21.029C53.8371 21.5085 54.2132 21.8928 54.6775 22.182C55.1484 22.4644 55.6617 22.6056 56.2177 22.6056Z" fill="#0B2564"/>
<path d="M28.2852 3.2002V3.80971" stroke="#93278F"/>
<path d="M33.1396 4.72147L33.4301 4.21606" stroke="#93278F"/>
<path d="M38.9007 8.07617L38.3975 8.36796" stroke="#93278F"/>
<path fill-rule="evenodd" clip-rule="evenodd" d="M42.443 12.1525C39.9585 6.39879 34.2529 2.37412 27.6117 2.37412C20.9703 2.37412 15.2646 6.39906 12.7803 12.1531C14.2602 5.29212 20.3383 0.152344 27.6117 0.152344C34.8847 0.152344 40.9628 5.29184 42.443 12.1525Z" fill="#93278F"/>
<path d="M28.4875 12.1397L28.2852 12.8508L28.791 12.4444L31.9259 7.0603L28.4875 12.1397Z" fill="#93278F" stroke="#93278F" stroke-linejoin="round"/>
<path d="M28.083 12.1396L28.2854 8.38086L28.4876 12.1396L28.2854 12.7491L28.083 12.1396Z" fill="#93278F" stroke="#93278F" stroke-linejoin="round"/>
</g>
<defs>
<clipPath id="clip0_3814_72121">
<rect width="61.6" height="32" fill="white"/>
</clipPath>
</defs>
</svg>
